# xmcd CD database file
#
# Track frame offsets:
#	150
#	8250
#	35775
#	53175
#	67162
#	80550
#	117337
#	127312
#	152512
#	169875
#	188475
#	204262
#	219525
#	239475
#	257212
#	280650
#
# Disc length: 3914 seconds
#
# Revision: 0
# Processed by: cddbd v1.5.1PL0 Copyright (c) Steve Scherf et al.
# Submitted via: CDex 1.60beta1
#
DISCID=e50f4810
DTITLE=Skyline - Tony Trischka - Ticket Back: Retrospective (1981-1989)
DYEAR=1998
DGENRE=Country
TTITLE0=Brady's Leap
TTITLE1=Stranded in the Moonlight
TTITLE2=Lifeline
TTITLE3=Wishful Thinking
TTITLE4=Steam
TTITLE5=I Can't Believe
TTITLE6=Man in the Middle
TTITLE7=Pour Tessa
TTITLE8=Ticket Back
TTITLE9=You're Gonna Make Me Lonesome When You Go
TTITLE10=Elbow Room
TTITLE11=To Let You Go [#]
TTITLE12=Emerald Eyes
TTITLE13=Woh, Me
TTITLE14=Standing at the Water's Edge [#]
TTITLE15=Late to Work
EXTD=YEAR: 1998
EXTT0=
EXTT1=
EXTT2=
EXTT3=
EXTT4=
EXTT5=
EXTT6=
EXTT7=
EXTT8=
EXTT9=
EXTT10=
EXTT11=
EXTT12=
EXTT13=
EXTT14=
EXTT15=
PLAYORDER=
